<?xml version="1.0" standalone="no"?>
<!DOCTYPE svg PUBLIC "-//W3C//DTD SVG 1.1//EN" "http://www.w3.org/Graphics/SVG/1.1/DTD/svg11.dtd">
<svg xmlns="http://www.w3.org/2000/svg" id="Layer_2" data-name="Layer 2" viewBox="0 0 248.11 119.13" width="248.11000061035156" height="119.12999725341797">
  <defs>
    <style>
      .cls-1 {
        fill: #e7dbcf;
      }

      .cls-2 {
        fill: #8c8087;
      }

      .cls-3 {
        fill: #55606f;
      }

      .cls-4 {
        fill: #4e5b6b;
      }
    </style>
  </defs>
  <g id="Layer_1-2" data-name="Layer 1">
    <g>
      <path class="cls-1" d="m148.03.23c.62-.03,1.24-.1,1.87-.1,20.29,0,40.57-.07,60.86.02,11.31.05,22.47,7.11,26.7,18.1,3.77,9.79,2.04,20.6-5.72,28.52-5.37,5.47-11.81,8.53-19.41,9.21-1.05.09-2.08.31-3.52.54,2.6.96,4.76,2.1,6.52,3.87,3.47,3.47,5.48,7.8,7.37,12.22,3.14,7.39,5.2,15.17,8.19,22.62,1.97,4.92,3.96,9.82,8.03,13.53,2.35,2.14,4.95,3.19,8.12,2.72.37-.06.78-.16,1,.25.26.49-.08.84-.4,1.14-1.16,1.05-2.47,1.9-3.85,2.61-4.09,2.09-8.43,3.15-13.04,3.51-3.13.24-6.17.25-9.24-.41-6.81-1.45-11.97-5.32-16-10.84-4.84-6.64-7.58-14.23-9.76-22.05-1.98-7.12-3.85-14.27-5.81-21.39-.55-1.99-1.47-3.83-2.61-5.55-.33-.5-.83-.95-1.35-1.26-.67-.39-1.41-1.08-2.23-.62-.78.45-.38,1.37-.38,2.07-.02,14.23.06,28.46-.05,42.69-.04,5.22,3.46,8.97,8.43,9.78.43.07,1.19-.25,1.14.53-.04.58-.71.59-1.22.59-2.56,0-5.12,0-7.68,0-12.17,0-24.34,0-36.51,0-.44,0-.87,0-1.31,0-.37-.01-.84.02-.88-.47-.06-.65.48-.58.91-.64,4.39-.59,7.28-2.91,8.45-7.27.18-.68.26-1.34.26-2.02,0-12.05,0-24.09,0-36.14,3.3-1.99,6.49-4.15,9.26-6.83,8.98-8.7,12.13-19.38,10.12-31.54-1.69-10.2-7.08-18.06-15.97-23.47-3.19-1.94-6.77-2.76-10.25-3.9Zm35.31,28.05c0,8.48.03,16.97-.03,25.45-.01,1.49.42,1.97,1.9,1.89,2.3-.11,4.62-.14,6.92,0,5.74.32,9.94-2.22,13-6.87,4.65-7.06,6.23-14.84,5.63-23.22-.46-6.32-1.9-12.3-5.54-17.53-2.47-3.54-5.55-6.26-10.2-6.81-3.25-.38-6.47-.08-9.69-.3-1.53-.11-2.03.37-2.02,1.96.07,8.48.04,16.97.04,25.45Z"/>
      <path class="cls-2" d="m148.03.23c3.48,1.14,7.06,1.96,10.25,3.9,8.89,5.41,14.29,13.27,15.97,23.47,2.01,12.16-1.14,22.84-10.12,31.54-2.77,2.68-5.96,4.84-9.26,6.83-7.41,3.97-15.3,6.63-23.48,8.46-3.45.77-6.92,1.47-10.4,2.09-1,.18-1.35.51-1.34,1.54.04,7.99-.07,15.98.06,23.96.07,3.88,2.06,6.79,5.52,8.62.08.18.16.35.41.27.99.05,1.97.16,2.92.47.35.12.79.05.78.58-.01.52-.44.52-.81.54-.37.02-.75,0-1.12,0-14.61,0-29.22,0-43.83,0-.37,0-.75,0-1.12,0-.37-.01-.82.02-.89-.47-.09-.67.46-.59.87-.66,2.32-.39,4.42-1.19,6.13-2.92,1.97-2,2.6-4.55,2.6-7.13.06-30.47.02-60.93.02-91.39-.22-.63.31-1.4-.38-1.94-.83-3.66-4.01-6.38-7.92-6.74-.58-.05-1.32-.01-1.31-.69.02-.83.87-.49,1.35-.49,11.9,0,23.79.01,35.69.02.04.09.08.18.11.26.04-.09.08-.18.11-.26,9.73-.05,19.46-.15,29.19.12Zm-27.99.88l-.13.02.03.13c-.07.36-.21.72-.21,1.08-.03,23.65-.04,47.31-.05,70.96,0,.52-.19,1.1.2,1.59.74-.05,1.32-.41,1.91-.75,4.86-2.89,9.6-5.9,13.34-10.29,4.53-5.32,7.17-11.45,8.56-18.23,1.01-4.93.62-9.9.74-14.86.17-6.88-1.57-13.3-4.59-19.39-2.01-4.07-4.77-7.62-9.12-9.44-3.42-1.42-7.07-1.06-10.67-.83Z"/>
      <path class="cls-4" d="m45.55,84.8c-.47-2.58-1.54-4.98-2.32-7.46-.09-.13-.18-.27-.27-.4-1.03-3.11-2.07-6.22-3.1-9.33-.09-.14-.18-.27-.27-.41-.9-2.76-1.8-5.52-2.7-8.29-.45-.82-.02-2.01-1.06-2.59-.15-.49-.31-.99-.46-1.48-.1-.13-.21-.25-.31-.38-.69-2.75-1.58-5.4-2.81-7.98-.73-1.54-1.02-3.38-1.52-5.08-1.14-3.88-2.67-7.62-4.02-11.42-1.8-5.07-3.21-10.28-5.18-15.29-.2-.5-.22-1.11-.75-1.45-.02-.75.03-1.53-.87-2.2.04.87.08,1.54.11,2.21-.03.56-.09,1.12-.09,1.68,0,24.91,0,49.82,0,74.74,0,.62.03,1.25.05,1.87-.55.88-.52,1.76,0,2.65.85,6.94,4.39,12.02,10.51,15.35.03.23.13.36.38.31,2.27.72,4.45,1.85,6.96,1.55.34-.04.82-.05.81.49,0,.5-.42.54-.81.55-.37.01-.75,0-1.12,0-11.61,0-23.22,0-34.82,0-.31,0-.62,0-.94,0-.43,0-.98.04-.95-.58.03-.66.64-.46,1.02-.48,4.69-.21,8.62-2.16,11.97-5.34,3.83-3.64,5.83-8.25,5.85-13.43.1-27.02.07-54.05,0-81.07,0-4.03-1.3-7.59-5.31-9.47-1.1-.51-2.28-.86-3.54-.84-.43,0-1.11.3-1.18-.49-.08-.94.68-.71,1.18-.71,4.68-.02,9.36-.01,14.04-.01,6.93,0,13.86.03,20.78-.03,1.17,0,1.8.26,2.13,1.47.57,2.08,1.33,4.12,2,6.17-.09.25.06.35.27.41.65,1.99,1.31,3.97,1.96,5.96-.07.25.05.37.28.42,1.03,3.11,2.06,6.21,3.09,9.32-.07.25.06.36.29.41,1.34,3.86,2.69,7.72,4.02,11.59.59,1.74,1.14,3.49,1.71,5.23-.08.25.05.35.27.4,1.78,5.23,3.55,10.47,5.33,15.7-.07.25.06.36.29.4,1.01,3.1,2.01,6.2,3.02,9.3.08.94.82.76,1.41.83-.23.72-.46,1.44-.69,2.16-.21.05-.36.15-.27.41-.87,2.63-1.71,5.28-2.61,7.9-2.14,6.23-4.32,12.45-6.48,18.67-.22.05-.36.15-.27.4-1.04,3.11-2.07,6.21-3.11,9.32-.21.06-.36.17-.27.42-.53,1.7-1.07,3.4-1.77,5.65-1.05-3.06-1.94-5.63-2.83-8.21-.09-.14-.19-.28-.28-.43-.65-1.99-1.31-3.98-1.96-5.97-.09-.13-.18-.27-.27-.4-1.02-3.03-2.01-6.07-3.1-9.08-.17-.46-.33-.9-.38-1.39-.09-.13-.19-.27-.28-.4-.15-.5-.3-1-.46-1.5-.1-.13-.21-.25-.31-.38Z"/>
      <path class="cls-3" d="m70.89,67.62c-.59-.07-1.33.12-1.41-.83.55.17.79-.13.93-.61,1.48-4.99,3.65-9.74,5.11-14.74,1.16-3.95,2.74-7.77,4.09-11.66,2.14-6.18,4.2-12.39,6.37-18.57,1.55-4.43,3.22-8.82,4.84-13.22.69.54.16,1.31.38,1.94-1.11,1.83-1.45,3.95-2.26,5.9-.21.06-.35.16-.27.41-.84,2.58-1.65,5.17-2.54,7.73-2.17,6.29-4.37,12.56-6.56,18.84-.21.05-.35.15-.27.4-.89,2.69-1.74,5.39-2.66,8.07-1.76,5.11-3.54,10.21-5.32,15.32-.12.35-.28.68-.42,1.03Z"/>
      <path class="cls-3" d="m35.83,56.33c1.04.58.6,1.77,1.06,2.59-1.11-.55-1.29-1.49-1.06-2.59Z"/>
      <path class="cls-1" d="m118.84.1c-.04.09-.08.18-.11.26-.04-.09-.08-.18-.11-.26.08-.01.15-.01.23,0Z"/>
      <path class="cls-3" d="m39.59,67.2c.09.14.18.27.27.41-.21-.05-.36-.15-.27-.41Z"/>
      <path class="cls-3" d="m42.96,76.94c.09.13.18.27.27.4-.22-.05-.36-.15-.27-.4Z"/>
      <path class="cls-3" d="m45.55,84.8c.1.13.21.25.31.38-.22-.02-.37-.12-.31-.38Z"/>
      <path class="cls-3" d="m46.32,86.68c.09.13.19.27.28.4-.23-.04-.35-.15-.28-.4Z"/>
      <path class="cls-3" d="m35.06,54.46c.1.13.21.25.31.38-.22-.03-.37-.12-.31-.38Z"/>
      <path class="cls-3" d="m50.08,97.55c.09.13.18.27.27.4-.21-.05-.36-.15-.27-.4Z"/>
      <path class="cls-3" d="m52.31,103.91c.09.14.19.28.28.43-.22-.06-.35-.18-.28-.43Z"/>
      <polygon class="cls-1" points="120.05 1.1 119.94 1.25 119.92 1.12 120.05 1.1"/>
    </g>
  </g>
</svg>